%TF.GenerationSoftware,KiCad,Pcbnew,(5.1.9)-1*%
%TF.CreationDate,2023-05-17T16:08:43+02:00*%
%TF.ProjectId,Compteur_palonniers,436f6d70-7465-4757-925f-70616c6f6e6e,rev?*%
%TF.SameCoordinates,PX6dac2c0PY7bfa480*%
%TF.FileFunction,Copper,L2,Bot*%
%TF.FilePolarity,Positive*%
%FSLAX46Y46*%
G04 Gerber Fmt 4.6, Leading zero omitted, Abs format (unit mm)*
G04 Created by KiCad (PCBNEW (5.1.9)-1) date 2023-05-17 16:08:43*
%MOMM*%
%LPD*%
G01*
G04 APERTURE LIST*
%TA.AperFunction,ComponentPad*%
%ADD10C,2.300000*%
%TD*%
%TA.AperFunction,ComponentPad*%
%ADD11C,3.000000*%
%TD*%
%TA.AperFunction,ComponentPad*%
%ADD12R,3.000000X3.000000*%
%TD*%
%TA.AperFunction,ComponentPad*%
%ADD13O,3.000000X2.000000*%
%TD*%
%TA.AperFunction,ComponentPad*%
%ADD14R,3.000000X2.000000*%
%TD*%
%TA.AperFunction,ComponentPad*%
%ADD15C,2.000000*%
%TD*%
%TA.AperFunction,ComponentPad*%
%ADD16O,2.500000X1.700000*%
%TD*%
%TA.AperFunction,ComponentPad*%
%ADD17R,2.500000X1.700000*%
%TD*%
%TA.AperFunction,ComponentPad*%
%ADD18O,1.500000X2.200000*%
%TD*%
%TA.AperFunction,ComponentPad*%
%ADD19C,2.500000*%
%TD*%
%TA.AperFunction,WasherPad*%
%ADD20C,3.100000*%
%TD*%
%TA.AperFunction,Conductor*%
%ADD21C,0.800000*%
%TD*%
%TA.AperFunction,Conductor*%
%ADD22C,1.000000*%
%TD*%
G04 APERTURE END LIST*
D10*
%TO.P,R103,1*%
%TO.N,ON*%
X42200000Y19800000D03*
%TO.P,R103,2*%
%TO.N,Net-(R103-Pad2)*%
X52200000Y19800000D03*
%TD*%
D11*
%TO.P,J1,5*%
%TO.N,Net-(J1-Pad5)*%
X7300000Y11080000D03*
%TO.P,J1,4*%
%TO.N,+24V*%
X7300000Y16160000D03*
%TO.P,J1,3*%
%TO.N,GND*%
X7300000Y21240000D03*
%TO.P,J1,2*%
%TO.N,+24V*%
X7300000Y26320000D03*
D12*
%TO.P,J1,1*%
%TO.N,GND*%
X7300000Y31400000D03*
%TD*%
D13*
%TO.P,TR101,1*%
%TO.N,GND*%
X68200000Y17600000D03*
%TO.P,TR101,3*%
%TO.N,Net-(D101-Pad2)*%
X68200000Y22100000D03*
%TO.P,TR101,2*%
%TO.N,Net-(R103-Pad2)*%
X66200000Y19870000D03*
%TD*%
D11*
%TO.P,K101,11*%
%TO.N,+24V*%
X47000000Y33500000D03*
%TO.P,K101,A2*%
%TO.N,14*%
X49000000Y39500000D03*
%TO.P,K101,12*%
%TO.N,N/C*%
X61200000Y39500000D03*
%TO.P,K101,14*%
%TO.N,14*%
X61200000Y27500000D03*
%TO.P,K101,A1*%
%TO.N,Net-(D101-Pad2)*%
X49000000Y27500000D03*
%TD*%
D13*
%TO.P,J101,4*%
%TO.N,+5V*%
X58500000Y15800000D03*
%TO.P,J101,3*%
%TO.N,RX*%
X58500000Y13300000D03*
%TO.P,J101,2*%
%TO.N,TX*%
X58500000Y10800000D03*
D14*
%TO.P,J101,1*%
%TO.N,GND*%
X58500000Y8300000D03*
%TD*%
D15*
%TO.P,D101,1*%
%TO.N,14*%
X42200000Y35110000D03*
%TO.P,D101,2*%
%TO.N,Net-(D101-Pad2)*%
X42200000Y27490000D03*
%TD*%
D16*
%TO.P,J2,4*%
%TO.N,14*%
X68800000Y27490000D03*
%TO.P,J2,3*%
%TO.N,N/C*%
X68800000Y30030000D03*
%TO.P,J2,2*%
X68800000Y32570000D03*
D17*
%TO.P,J2,1*%
%TO.N,+24V*%
X68800000Y35110000D03*
%TD*%
D10*
%TO.P,R102,1*%
%TO.N,SIG*%
X27300000Y17700000D03*
%TO.P,R102,2*%
%TO.N,GND*%
X17300000Y17700000D03*
%TD*%
%TO.P,R101,1*%
%TO.N,Net-(J1-Pad5)*%
X17300000Y13300000D03*
%TO.P,R101,2*%
%TO.N,SIG*%
X27300000Y13300000D03*
%TD*%
D18*
%TO.P,U2,8*%
%TO.N,+5V*%
X33490000Y16310000D03*
%TO.P,U2,7*%
%TO.N,SIG*%
X36030000Y16310000D03*
%TO.P,U2,6*%
%TO.N,ON*%
X38570000Y16310000D03*
%TO.P,U2,5*%
%TO.N,RX*%
X41110000Y16310000D03*
%TO.P,U2,4*%
%TO.N,GND*%
X41110000Y8690000D03*
%TO.P,U2,3*%
%TO.N,TX*%
X38570000Y8690000D03*
%TO.P,U2,2*%
%TO.N,N/C*%
X36030000Y8690000D03*
%TO.P,U2,1*%
X33490000Y8690000D03*
%TD*%
D19*
%TO.P,U1,4*%
%TO.N,+5V*%
X15850000Y39500000D03*
%TO.P,U1,3*%
%TO.N,GND*%
X15850000Y26300000D03*
%TO.P,U1,2*%
%TO.N,14*%
X34350000Y39500000D03*
%TO.P,U1,1*%
%TO.N,GND*%
X34350000Y26300000D03*
%TD*%
D20*
%TO.P,E1,*%
%TO.N,*%
X3400000Y40800000D03*
X71700000Y40800000D03*
X71700000Y4300000D03*
X3400000Y4300000D03*
%TD*%
D21*
%TO.N,Net-(J1-Pad5)*%
X7300000Y11080000D02*
X17280000Y11080000D01*
X17280000Y11080000D02*
X17300000Y11100000D01*
X17280000Y13280000D02*
X17300000Y13300000D01*
X17280000Y11080000D02*
X17280000Y13280000D01*
D22*
%TO.N,+24V*%
X7300000Y26320000D02*
X2520000Y26320000D01*
X65600000Y12000000D02*
X67400000Y13800000D01*
X67400000Y13800000D02*
X73100000Y13800000D01*
X65600000Y4300000D02*
X65600000Y12000000D01*
X17449998Y8450002D02*
X17449998Y4300000D01*
X17449998Y4300000D02*
X65600000Y4300000D01*
X2349998Y8450002D02*
X17449998Y8450002D01*
X2300000Y8500000D02*
X2349998Y8450002D01*
X47000000Y33500000D02*
X53700000Y33500000D01*
X53700000Y33500000D02*
X53700000Y24500000D01*
X53700000Y24500000D02*
X72600000Y24500000D01*
X72600000Y24500000D02*
X73100000Y24000000D01*
X73100000Y13800000D02*
X73100000Y24000000D01*
X2300000Y26100000D02*
X2520000Y26320000D01*
X2440000Y16160000D02*
X2300000Y16300000D01*
X7300000Y16160000D02*
X2440000Y16160000D01*
X2300000Y16300000D02*
X2300000Y26100000D01*
X2300000Y8500000D02*
X2300000Y16300000D01*
X73100000Y24000000D02*
X73100000Y34600000D01*
X72590000Y35110000D02*
X68800000Y35110000D01*
X73100000Y34600000D02*
X72590000Y35110000D01*
%TO.N,GND*%
X41110000Y8690000D02*
X41110000Y6410000D01*
X12700000Y21380000D02*
X12840000Y21240000D01*
X7300000Y21240000D02*
X12840000Y21240000D01*
X7300000Y31400000D02*
X12700000Y31400000D01*
X12900000Y26300000D02*
X12700000Y26500000D01*
X15850000Y26300000D02*
X12900000Y26300000D01*
X12700000Y26500000D02*
X12700000Y21380000D01*
X12700000Y31400000D02*
X12700000Y26500000D01*
X34350000Y26300000D02*
X15850000Y26300000D01*
X62300000Y13700000D02*
X66200000Y17600000D01*
X66200000Y17600000D02*
X68200000Y17600000D01*
X21660000Y21240000D02*
X12840000Y21240000D01*
X21900000Y21000000D02*
X21660000Y21240000D01*
X22390000Y6410000D02*
X21900000Y6900000D01*
X41110000Y6410000D02*
X22390000Y6410000D01*
X17300000Y17700000D02*
X21700000Y17700000D01*
X21900000Y17900000D02*
X21900000Y21000000D01*
X21700000Y17700000D02*
X21900000Y17900000D01*
X21900000Y6900000D02*
X21900000Y17900000D01*
X62200000Y8300000D02*
X62300000Y8400000D01*
X58500000Y8300000D02*
X62200000Y8300000D01*
X62300000Y6520000D02*
X62300000Y9100000D01*
X62190000Y6410000D02*
X62300000Y6520000D01*
X41110000Y6410000D02*
X62190000Y6410000D01*
X62300000Y9100000D02*
X62300000Y13700000D01*
X62300000Y8400000D02*
X62300000Y9100000D01*
%TO.N,+5V*%
X46100000Y15900000D02*
X46100000Y22400000D01*
X46200000Y15800000D02*
X46100000Y15900000D01*
X58500000Y15800000D02*
X46200000Y15800000D01*
X15850000Y39500000D02*
X15850000Y34250000D01*
X15850000Y34250000D02*
X15900000Y34200000D01*
X15900000Y34200000D02*
X38400000Y34200000D01*
X33500000Y16320000D02*
X33490000Y16310000D01*
X33500000Y22400000D02*
X33500000Y16320000D01*
X38400000Y34200000D02*
X38400000Y22400000D01*
X38400000Y22400000D02*
X33500000Y22400000D01*
X46100000Y22400000D02*
X38400000Y22400000D01*
D21*
%TO.N,TX*%
X58500000Y10800000D02*
X38800000Y10800000D01*
X38570000Y10570000D02*
X38800000Y10800000D01*
X38570000Y8690000D02*
X38570000Y10570000D01*
%TO.N,RX*%
X58500000Y13300000D02*
X41200000Y13300000D01*
X41110000Y13390000D02*
X41200000Y13300000D01*
X41110000Y16310000D02*
X41110000Y13390000D01*
%TO.N,ON*%
X38570000Y19670000D02*
X38570000Y16310000D01*
X38700000Y19800000D02*
X38570000Y19670000D01*
X42200000Y19800000D02*
X38700000Y19800000D01*
%TO.N,SIG*%
X36000000Y16280000D02*
X36030000Y16310000D01*
X27300000Y13300000D02*
X35800000Y13300000D01*
X36030000Y13530000D02*
X36030000Y16310000D01*
X35800000Y13300000D02*
X36030000Y13530000D01*
X27300000Y13300000D02*
X27300000Y17700000D01*
%TO.N,Net-(D101-Pad2)*%
X50500000Y22100000D02*
X68200000Y22100000D01*
X49190000Y26590000D02*
X49200000Y26600000D01*
X49000000Y27500000D02*
X49000000Y22200000D01*
X49100000Y22100000D02*
X50500000Y22100000D01*
X49000000Y22200000D02*
X49100000Y22100000D01*
X48990000Y27490000D02*
X49000000Y27500000D01*
X42200000Y27490000D02*
X48990000Y27490000D01*
%TO.N,Net-(R103-Pad2)*%
X66130000Y19800000D02*
X66200000Y19870000D01*
X52200000Y19800000D02*
X66130000Y19800000D01*
%TO.N,14*%
X68790000Y27500000D02*
X68800000Y27490000D01*
X61200000Y27500000D02*
X68790000Y27500000D01*
X49000000Y39500000D02*
X57100000Y39500000D01*
X57100000Y39500000D02*
X57100000Y27800000D01*
X57400000Y27500000D02*
X61200000Y27500000D01*
X57100000Y27800000D02*
X57400000Y27500000D01*
X42200000Y39300000D02*
X42000000Y39500000D01*
X42200000Y35110000D02*
X42200000Y39300000D01*
X42000000Y39500000D02*
X49000000Y39500000D01*
X34350000Y39500000D02*
X42000000Y39500000D01*
%TD*%
M02*
