%TF.GenerationSoftware,KiCad,Pcbnew,(5.1.9)-1*%
%TF.CreationDate,2023-05-28T15:43:21+02:00*%
%TF.ProjectId,Compteur_palonniers,436f6d70-7465-4757-925f-70616c6f6e6e,rev?*%
%TF.SameCoordinates,PX6dac2c0PY7bfa480*%
%TF.FileFunction,Legend,Top*%
%TF.FilePolarity,Positive*%
%FSLAX46Y46*%
G04 Gerber Fmt 4.6, Leading zero omitted, Abs format (unit mm)*
G04 Created by KiCad (PCBNEW (5.1.9)-1) date 2023-05-28 15:43:21*
%MOMM*%
%LPD*%
G01*
G04 APERTURE LIST*
%ADD10C,0.250000*%
%ADD11C,0.300000*%
%ADD12C,0.120000*%
%ADD13C,0.150000*%
%ADD14C,0.254000*%
G04 APERTURE END LIST*
D10*
X52738095Y8500000D02*
X52642857Y8547620D01*
X52500000Y8547620D01*
X52357142Y8500000D01*
X52261904Y8404762D01*
X52214285Y8309524D01*
X52166666Y8119048D01*
X52166666Y7976191D01*
X52214285Y7785715D01*
X52261904Y7690477D01*
X52357142Y7595239D01*
X52500000Y7547620D01*
X52595238Y7547620D01*
X52738095Y7595239D01*
X52785714Y7642858D01*
X52785714Y7976191D01*
X52595238Y7976191D01*
X53214285Y7547620D02*
X53214285Y8547620D01*
X53785714Y7547620D01*
X53785714Y8547620D01*
X54261904Y7547620D02*
X54261904Y8547620D01*
X54500000Y8547620D01*
X54642857Y8500000D01*
X54738095Y8404762D01*
X54785714Y8309524D01*
X54833333Y8119048D01*
X54833333Y7976191D01*
X54785714Y7785715D01*
X54738095Y7690477D01*
X54642857Y7595239D01*
X54500000Y7547620D01*
X54261904Y7547620D01*
X52738095Y11147620D02*
X53309523Y11147620D01*
X53023809Y10147620D02*
X53023809Y11147620D01*
X53547619Y11147620D02*
X54214285Y10147620D01*
X54214285Y11147620D02*
X53547619Y10147620D01*
X53333333Y12747620D02*
X53000000Y13223810D01*
X52761904Y12747620D02*
X52761904Y13747620D01*
X53142857Y13747620D01*
X53238095Y13700000D01*
X53285714Y13652381D01*
X53333333Y13557143D01*
X53333333Y13414286D01*
X53285714Y13319048D01*
X53238095Y13271429D01*
X53142857Y13223810D01*
X52761904Y13223810D01*
X53666666Y13747620D02*
X54333333Y12747620D01*
X54333333Y13747620D02*
X53666666Y12747620D01*
X53309523Y16347620D02*
X52833333Y16347620D01*
X52785714Y15871429D01*
X52833333Y15919048D01*
X52928571Y15966667D01*
X53166666Y15966667D01*
X53261904Y15919048D01*
X53309523Y15871429D01*
X53357142Y15776191D01*
X53357142Y15538096D01*
X53309523Y15442858D01*
X53261904Y15395239D01*
X53166666Y15347620D01*
X52928571Y15347620D01*
X52833333Y15395239D01*
X52785714Y15442858D01*
X53642857Y16347620D02*
X53976190Y15347620D01*
X54309523Y16347620D01*
D11*
X13171428Y4464286D02*
X13100000Y4392858D01*
X12885714Y4321429D01*
X12742857Y4321429D01*
X12528571Y4392858D01*
X12385714Y4535715D01*
X12314285Y4678572D01*
X12242857Y4964286D01*
X12242857Y5178572D01*
X12314285Y5464286D01*
X12385714Y5607143D01*
X12528571Y5750000D01*
X12742857Y5821429D01*
X12885714Y5821429D01*
X13100000Y5750000D01*
X13171428Y5678572D01*
X14028571Y4321429D02*
X13885714Y4392858D01*
X13814285Y4464286D01*
X13742857Y4607143D01*
X13742857Y5035715D01*
X13814285Y5178572D01*
X13885714Y5250000D01*
X14028571Y5321429D01*
X14242857Y5321429D01*
X14385714Y5250000D01*
X14457142Y5178572D01*
X14528571Y5035715D01*
X14528571Y4607143D01*
X14457142Y4464286D01*
X14385714Y4392858D01*
X14242857Y4321429D01*
X14028571Y4321429D01*
X15171428Y4321429D02*
X15171428Y5321429D01*
X15171428Y5178572D02*
X15242857Y5250000D01*
X15385714Y5321429D01*
X15600000Y5321429D01*
X15742857Y5250000D01*
X15814285Y5107143D01*
X15814285Y4321429D01*
X15814285Y5107143D02*
X15885714Y5250000D01*
X16028571Y5321429D01*
X16242857Y5321429D01*
X16385714Y5250000D01*
X16457142Y5107143D01*
X16457142Y4321429D01*
X17171428Y5321429D02*
X17171428Y3821429D01*
X17171428Y5250000D02*
X17314285Y5321429D01*
X17600000Y5321429D01*
X17742857Y5250000D01*
X17814285Y5178572D01*
X17885714Y5035715D01*
X17885714Y4607143D01*
X17814285Y4464286D01*
X17742857Y4392858D01*
X17600000Y4321429D01*
X17314285Y4321429D01*
X17171428Y4392858D01*
X18314285Y5321429D02*
X18885714Y5321429D01*
X18528571Y5821429D02*
X18528571Y4535715D01*
X18600000Y4392858D01*
X18742857Y4321429D01*
X18885714Y4321429D01*
X19957142Y4392858D02*
X19814285Y4321429D01*
X19528571Y4321429D01*
X19385714Y4392858D01*
X19314285Y4535715D01*
X19314285Y5107143D01*
X19385714Y5250000D01*
X19528571Y5321429D01*
X19814285Y5321429D01*
X19957142Y5250000D01*
X20028571Y5107143D01*
X20028571Y4964286D01*
X19314285Y4821429D01*
X21314285Y5321429D02*
X21314285Y4321429D01*
X20671428Y5321429D02*
X20671428Y4535715D01*
X20742857Y4392858D01*
X20885714Y4321429D01*
X21100000Y4321429D01*
X21242857Y4392858D01*
X21314285Y4464286D01*
X22028571Y4321429D02*
X22028571Y5321429D01*
X22028571Y5035715D02*
X22100000Y5178572D01*
X22171428Y5250000D01*
X22314285Y5321429D01*
X22457142Y5321429D01*
X24742857Y4321429D02*
X24742857Y5821429D01*
X24742857Y4392858D02*
X24600000Y4321429D01*
X24314285Y4321429D01*
X24171428Y4392858D01*
X24100000Y4464286D01*
X24028571Y4607143D01*
X24028571Y5035715D01*
X24100000Y5178572D01*
X24171428Y5250000D01*
X24314285Y5321429D01*
X24600000Y5321429D01*
X24742857Y5250000D01*
X26028571Y4392858D02*
X25885714Y4321429D01*
X25600000Y4321429D01*
X25457142Y4392858D01*
X25385714Y4535715D01*
X25385714Y5107143D01*
X25457142Y5250000D01*
X25600000Y5321429D01*
X25885714Y5321429D01*
X26028571Y5250000D01*
X26100000Y5107143D01*
X26100000Y4964286D01*
X25385714Y4821429D01*
X27885714Y5321429D02*
X27885714Y3821429D01*
X27885714Y5250000D02*
X28028571Y5321429D01*
X28314285Y5321429D01*
X28457142Y5250000D01*
X28528571Y5178572D01*
X28600000Y5035715D01*
X28600000Y4607143D01*
X28528571Y4464286D01*
X28457142Y4392858D01*
X28314285Y4321429D01*
X28028571Y4321429D01*
X27885714Y4392858D01*
X29885714Y4321429D02*
X29885714Y5107143D01*
X29814285Y5250000D01*
X29671428Y5321429D01*
X29385714Y5321429D01*
X29242857Y5250000D01*
X29885714Y4392858D02*
X29742857Y4321429D01*
X29385714Y4321429D01*
X29242857Y4392858D01*
X29171428Y4535715D01*
X29171428Y4678572D01*
X29242857Y4821429D01*
X29385714Y4892858D01*
X29742857Y4892858D01*
X29885714Y4964286D01*
X30814285Y4321429D02*
X30671428Y4392858D01*
X30600000Y4535715D01*
X30600000Y5821429D01*
X31600000Y4321429D02*
X31457142Y4392858D01*
X31385714Y4464286D01*
X31314285Y4607143D01*
X31314285Y5035715D01*
X31385714Y5178572D01*
X31457142Y5250000D01*
X31600000Y5321429D01*
X31814285Y5321429D01*
X31957142Y5250000D01*
X32028571Y5178572D01*
X32100000Y5035715D01*
X32100000Y4607143D01*
X32028571Y4464286D01*
X31957142Y4392858D01*
X31814285Y4321429D01*
X31600000Y4321429D01*
X32742857Y5321429D02*
X32742857Y4321429D01*
X32742857Y5178572D02*
X32814285Y5250000D01*
X32957142Y5321429D01*
X33171428Y5321429D01*
X33314285Y5250000D01*
X33385714Y5107143D01*
X33385714Y4321429D01*
X34100000Y5321429D02*
X34100000Y4321429D01*
X34100000Y5178572D02*
X34171428Y5250000D01*
X34314285Y5321429D01*
X34528571Y5321429D01*
X34671428Y5250000D01*
X34742857Y5107143D01*
X34742857Y4321429D01*
X35457142Y4321429D02*
X35457142Y5321429D01*
X35457142Y5821429D02*
X35385714Y5750000D01*
X35457142Y5678572D01*
X35528571Y5750000D01*
X35457142Y5821429D01*
X35457142Y5678572D01*
X36742857Y4392858D02*
X36600000Y4321429D01*
X36314285Y4321429D01*
X36171428Y4392858D01*
X36100000Y4535715D01*
X36100000Y5107143D01*
X36171428Y5250000D01*
X36314285Y5321429D01*
X36600000Y5321429D01*
X36742857Y5250000D01*
X36814285Y5107143D01*
X36814285Y4964286D01*
X36100000Y4821429D01*
X37457142Y4321429D02*
X37457142Y5321429D01*
X37457142Y5035715D02*
X37528571Y5178572D01*
X37600000Y5250000D01*
X37742857Y5321429D01*
X37885714Y5321429D01*
X38314285Y4392858D02*
X38457142Y4321429D01*
X38742857Y4321429D01*
X38885714Y4392858D01*
X38957142Y4535715D01*
X38957142Y4607143D01*
X38885714Y4750000D01*
X38742857Y4821429D01*
X38528571Y4821429D01*
X38385714Y4892858D01*
X38314285Y5035715D01*
X38314285Y5107143D01*
X38385714Y5250000D01*
X38528571Y5321429D01*
X38742857Y5321429D01*
X38885714Y5250000D01*
D12*
X73600000Y29900000D02*
X72100000Y33400000D01*
X73600000Y27400000D02*
X73600000Y29900000D01*
X71600000Y27400000D02*
X73600000Y27400000D01*
X73600000Y34900000D02*
X73600000Y32900000D01*
X71600000Y34900000D02*
X73600000Y34900000D01*
D13*
X747619Y11673810D02*
X1747619Y11673810D01*
X747619Y11197620D02*
X1747619Y11197620D01*
X747619Y10626191D01*
X1747619Y10626191D01*
X1652380Y17090477D02*
X1700000Y17042858D01*
X1747619Y16947620D01*
X1747619Y16709524D01*
X1700000Y16614286D01*
X1652380Y16566667D01*
X1557142Y16519048D01*
X1461904Y16519048D01*
X1319047Y16566667D01*
X747619Y17138096D01*
X747619Y16519048D01*
X1414285Y15661905D02*
X747619Y15661905D01*
X1795238Y15900000D02*
X1080952Y16138096D01*
X1080952Y15519048D01*
X1747619Y15280953D02*
X747619Y14947620D01*
X1747619Y14614286D01*
X1700000Y21661905D02*
X1747619Y21757143D01*
X1747619Y21900000D01*
X1700000Y22042858D01*
X1604761Y22138096D01*
X1509523Y22185715D01*
X1319047Y22233334D01*
X1176190Y22233334D01*
X985714Y22185715D01*
X890476Y22138096D01*
X795238Y22042858D01*
X747619Y21900000D01*
X747619Y21804762D01*
X795238Y21661905D01*
X842857Y21614286D01*
X1176190Y21614286D01*
X1176190Y21804762D01*
X747619Y21185715D02*
X1747619Y21185715D01*
X747619Y20614286D01*
X1747619Y20614286D01*
X747619Y20138096D02*
X1747619Y20138096D01*
X1747619Y19900000D01*
X1700000Y19757143D01*
X1604761Y19661905D01*
X1509523Y19614286D01*
X1319047Y19566667D01*
X1176190Y19566667D01*
X985714Y19614286D01*
X890476Y19661905D01*
X795238Y19757143D01*
X747619Y19900000D01*
X747619Y20138096D01*
X1700000Y31911905D02*
X1747619Y32007143D01*
X1747619Y32150000D01*
X1700000Y32292858D01*
X1604761Y32388096D01*
X1509523Y32435715D01*
X1319047Y32483334D01*
X1176190Y32483334D01*
X985714Y32435715D01*
X890476Y32388096D01*
X795238Y32292858D01*
X747619Y32150000D01*
X747619Y32054762D01*
X795238Y31911905D01*
X842857Y31864286D01*
X1176190Y31864286D01*
X1176190Y32054762D01*
X747619Y31435715D02*
X1747619Y31435715D01*
X747619Y30864286D01*
X1747619Y30864286D01*
X747619Y30388096D02*
X1747619Y30388096D01*
X1747619Y30150000D01*
X1700000Y30007143D01*
X1604761Y29911905D01*
X1509523Y29864286D01*
X1319047Y29816667D01*
X1176190Y29816667D01*
X985714Y29864286D01*
X890476Y29911905D01*
X795238Y30007143D01*
X747619Y30150000D01*
X747619Y30388096D01*
X1652380Y27340477D02*
X1700000Y27292858D01*
X1747619Y27197620D01*
X1747619Y26959524D01*
X1700000Y26864286D01*
X1652380Y26816667D01*
X1557142Y26769048D01*
X1461904Y26769048D01*
X1319047Y26816667D01*
X747619Y27388096D01*
X747619Y26769048D01*
X1414285Y25911905D02*
X747619Y25911905D01*
X1795238Y26150000D02*
X1080952Y26388096D01*
X1080952Y25769048D01*
X1747619Y25530953D02*
X747619Y25197620D01*
X1747619Y24864286D01*
D12*
%TO.C,R103*%
X44000000Y18600000D02*
X44000000Y21000000D01*
X50300000Y18600000D02*
X44000000Y18600000D01*
X50300000Y21000000D02*
X50300000Y18600000D01*
X44000000Y21000000D02*
X50300000Y21000000D01*
X42349000Y19800000D02*
X44000000Y19800000D01*
X51951000Y19800000D02*
X50300000Y19800000D01*
%TO.C,J1*%
X2400000Y34240000D02*
X2400000Y33740000D01*
X3140000Y34240000D02*
X2400000Y34240000D01*
X6277000Y12307000D02*
X6231000Y12354000D01*
X8575000Y10010000D02*
X8539000Y10045000D01*
X6061000Y12114000D02*
X6026000Y12149000D01*
X8369000Y9805000D02*
X8323000Y9852000D01*
X6277000Y17387000D02*
X6231000Y17434000D01*
X8575000Y15090000D02*
X8539000Y15125000D01*
X6061000Y17194000D02*
X6026000Y17229000D01*
X8369000Y14885000D02*
X8323000Y14932000D01*
X6277000Y22467000D02*
X6231000Y22514000D01*
X8575000Y20170000D02*
X8539000Y20205000D01*
X6061000Y22274000D02*
X6026000Y22309000D01*
X8369000Y19965000D02*
X8323000Y20012000D01*
X6277000Y27547000D02*
X6231000Y27594000D01*
X8575000Y25250000D02*
X8539000Y25285000D01*
X6061000Y27354000D02*
X6026000Y27389000D01*
X8369000Y25045000D02*
X8323000Y25092000D01*
X12561000Y8480000D02*
X2640000Y8480000D01*
X12561000Y34000000D02*
X2640000Y34000000D01*
X2640000Y34000000D02*
X2640000Y8480000D01*
X12561000Y34000000D02*
X12561000Y8480000D01*
X9601000Y34000000D02*
X9601000Y8480000D01*
X4700000Y34000000D02*
X4700000Y8480000D01*
X3200000Y34000000D02*
X3200000Y8480000D01*
X8980000Y11080000D02*
G75*
G03*
X8980000Y11080000I-1680000J0D01*
G01*
X8980000Y16160000D02*
G75*
G03*
X8980000Y16160000I-1680000J0D01*
G01*
X8980000Y21240000D02*
G75*
G03*
X8980000Y21240000I-1680000J0D01*
G01*
X8980000Y26320000D02*
G75*
G03*
X8980000Y26320000I-1680000J0D01*
G01*
X5619747Y31371195D02*
G75*
G02*
X5765000Y32084000I1680253J28805D01*
G01*
X6616958Y32935426D02*
G75*
G02*
X7984000Y32935000I683042J-1535426D01*
G01*
X8835426Y32083042D02*
G75*
G02*
X8835000Y30716000I-1535426J-683042D01*
G01*
X7983042Y29864574D02*
G75*
G02*
X6616000Y29865000I-683042J1535426D01*
G01*
X5765244Y30716682D02*
G75*
G02*
X5620000Y31400000I1534756J683318D01*
G01*
%TO.C,TR101*%
X70050000Y18070000D02*
X70050000Y21670000D01*
X70038478Y21708478D02*
G75*
G03*
X65600000Y19870000I-1838478J-1838478D01*
G01*
X70038478Y18031522D02*
G75*
G02*
X65600000Y19870000I-1838478J1838478D01*
G01*
%TO.C,K101*%
X55500000Y32000000D02*
X50500000Y32000000D01*
X55500000Y35000000D02*
X55500000Y32000000D01*
X50500000Y35000000D02*
X55500000Y35000000D01*
X50500000Y32000000D02*
X50500000Y35000000D01*
X55500000Y32000000D02*
X50500000Y35000000D01*
X53000000Y32000000D02*
X53000000Y27500000D01*
X53000000Y39500000D02*
X53000000Y35000000D01*
X49600000Y33500000D02*
X49600000Y29800000D01*
X56500000Y33500000D02*
X56500000Y29800000D01*
X56500000Y29800000D02*
X49600000Y29800000D01*
X58000000Y33500000D02*
X62500000Y36200000D01*
X56500000Y33500000D02*
X58000000Y33500000D01*
X53000000Y39500000D02*
X50700000Y39500000D01*
X49600000Y33500000D02*
X48700000Y33500000D01*
X50700000Y27500000D02*
X53000000Y27500000D01*
X61200000Y37800000D02*
X61200000Y35500000D01*
X61200000Y29200000D02*
X61200000Y31500000D01*
X64700000Y25800000D02*
X45500000Y25800000D01*
X64700000Y41200000D02*
X64700000Y25800000D01*
X45500000Y41200000D02*
X64700000Y41200000D01*
X45500000Y41200000D02*
X45500000Y34700000D01*
X45500000Y32300000D02*
X45500000Y25800000D01*
%TO.C,J101*%
X56050000Y5750000D02*
X62000000Y5750000D01*
X62000000Y5750000D02*
X62000000Y18350000D01*
X62000000Y18350000D02*
X56050000Y18350000D01*
X56050000Y18350000D02*
X56050000Y5750000D01*
X56050000Y9050000D02*
X56800000Y9050000D01*
X56800000Y9050000D02*
X56800000Y15050000D01*
X56800000Y15050000D02*
X56050000Y15050000D01*
X56050000Y15050000D02*
X56050000Y9050000D01*
X56050000Y5750000D02*
X56800000Y5750000D01*
X56800000Y5750000D02*
X56800000Y7550000D01*
X56800000Y7550000D02*
X56050000Y7550000D01*
X56050000Y7550000D02*
X56050000Y5750000D01*
X56050000Y16550000D02*
X56800000Y16550000D01*
X56800000Y16550000D02*
X56800000Y18350000D01*
X56800000Y18350000D02*
X56050000Y18350000D01*
X56050000Y18350000D02*
X56050000Y16550000D01*
X58300000Y5750000D02*
X58300000Y6500000D01*
X58300000Y6500000D02*
X61250000Y6500000D01*
X61250000Y6500000D02*
X61250000Y12050000D01*
X58300000Y18350000D02*
X58300000Y17600000D01*
X58300000Y17600000D02*
X61250000Y17600000D01*
X61250000Y17600000D02*
X61250000Y12050000D01*
X55750000Y7950000D02*
X55750000Y5450000D01*
X55750000Y5450000D02*
X58250000Y5450000D01*
D14*
%TO.C,D101*%
X43216000Y32824000D02*
X41184000Y32824000D01*
X41184000Y32570000D02*
X43216000Y32570000D01*
X42200000Y35110000D02*
X42200000Y33586000D01*
X42200000Y29014000D02*
X42200000Y27490000D01*
X41184000Y29014000D02*
X41184000Y33586000D01*
X41184000Y33586000D02*
X43216000Y33586000D01*
X43216000Y33586000D02*
X43216000Y29014000D01*
X43216000Y29014000D02*
X41184000Y29014000D01*
D12*
%TO.C,J2*%
X70070000Y33840000D02*
X67530000Y33840000D01*
X67530000Y26220000D02*
X67530000Y36380000D01*
X70070000Y36380000D02*
X70070000Y26220000D01*
X67530000Y36380000D02*
X70070000Y36380000D01*
X70070000Y26220000D02*
X67530000Y26220000D01*
%TO.C,R102*%
X25500000Y18900000D02*
X25500000Y16500000D01*
X19200000Y18900000D02*
X25500000Y18900000D01*
X19200000Y16500000D02*
X19200000Y18900000D01*
X25500000Y16500000D02*
X19200000Y16500000D01*
X27151000Y17700000D02*
X25500000Y17700000D01*
X17549000Y17700000D02*
X19200000Y17700000D01*
%TO.C,R101*%
X19100000Y12100000D02*
X19100000Y14500000D01*
X25400000Y12100000D02*
X19100000Y12100000D01*
X25400000Y14500000D02*
X25400000Y12100000D01*
X19100000Y14500000D02*
X25400000Y14500000D01*
X17449000Y13300000D02*
X19100000Y13300000D01*
X27051000Y13300000D02*
X25400000Y13300000D01*
%TO.C,U2*%
X31204000Y9198000D02*
X31204000Y15802000D01*
X43396000Y15802000D02*
X43396000Y9198000D01*
X32220000Y7420000D02*
X32220000Y17580000D01*
X42380000Y17580000D02*
X42380000Y7420000D01*
X32220000Y13770000D02*
X31204000Y13770000D01*
X32220000Y11230000D02*
X31204000Y11230000D01*
X31204000Y15802000D02*
X43396000Y15802000D01*
X42380000Y17580000D02*
X32220000Y17580000D01*
X31204000Y9198000D02*
X43396000Y9198000D01*
X42380000Y7420000D02*
X32220000Y7420000D01*
X32220000Y11230000D02*
G75*
G03*
X33490000Y12500000I0J1270000D01*
G01*
X33490000Y12500000D02*
G75*
G03*
X32220000Y13770000I-1270000J0D01*
G01*
%TO.C,U1*%
X14100000Y24900000D02*
X14100000Y24000000D01*
X36100000Y24900000D02*
X36100000Y24000000D01*
X36100000Y24000000D02*
X14100000Y24000000D01*
X14100000Y24900000D02*
X14100000Y41800000D01*
X14100000Y41800000D02*
X36100000Y41800000D01*
X36100000Y41800000D02*
X36100000Y24800000D01*
%TO.C,R103*%
D13*
X46157142Y19347620D02*
X45823809Y19823810D01*
X45585714Y19347620D02*
X45585714Y20347620D01*
X45966666Y20347620D01*
X46061904Y20300000D01*
X46109523Y20252381D01*
X46157142Y20157143D01*
X46157142Y20014286D01*
X46109523Y19919048D01*
X46061904Y19871429D01*
X45966666Y19823810D01*
X45585714Y19823810D01*
X47109523Y19347620D02*
X46538095Y19347620D01*
X46823809Y19347620D02*
X46823809Y20347620D01*
X46728571Y20204762D01*
X46633333Y20109524D01*
X46538095Y20061905D01*
X47728571Y20347620D02*
X47823809Y20347620D01*
X47919047Y20300000D01*
X47966666Y20252381D01*
X48014285Y20157143D01*
X48061904Y19966667D01*
X48061904Y19728572D01*
X48014285Y19538096D01*
X47966666Y19442858D01*
X47919047Y19395239D01*
X47823809Y19347620D01*
X47728571Y19347620D01*
X47633333Y19395239D01*
X47585714Y19442858D01*
X47538095Y19538096D01*
X47490476Y19728572D01*
X47490476Y19966667D01*
X47538095Y20157143D01*
X47585714Y20252381D01*
X47633333Y20300000D01*
X47728571Y20347620D01*
X48490476Y19347620D02*
X48490476Y20347620D01*
X49061904Y19347620D02*
X48633333Y19919048D01*
X49061904Y20347620D02*
X48490476Y19776191D01*
%TO.C,J1*%
X13012380Y20906667D02*
X13726666Y20906667D01*
X13869523Y20859048D01*
X13964761Y20763810D01*
X14012380Y20620953D01*
X14012380Y20525715D01*
X14012380Y21906667D02*
X14012380Y21335239D01*
X14012380Y21620953D02*
X13012380Y21620953D01*
X13155238Y21525715D01*
X13250476Y21430477D01*
X13298095Y21335239D01*
%TO.C,TR101*%
X64092380Y17655715D02*
X64092380Y18227143D01*
X65092380Y17941429D02*
X64092380Y17941429D01*
X65092380Y19131905D02*
X64616190Y18798572D01*
X65092380Y18560477D02*
X64092380Y18560477D01*
X64092380Y18941429D01*
X64140000Y19036667D01*
X64187619Y19084286D01*
X64282857Y19131905D01*
X64425714Y19131905D01*
X64520952Y19084286D01*
X64568571Y19036667D01*
X64616190Y18941429D01*
X64616190Y18560477D01*
X65092380Y20084286D02*
X65092380Y19512858D01*
X65092380Y19798572D02*
X64092380Y19798572D01*
X64235238Y19703334D01*
X64330476Y19608096D01*
X64378095Y19512858D01*
X64092380Y20703334D02*
X64092380Y20798572D01*
X64140000Y20893810D01*
X64187619Y20941429D01*
X64282857Y20989048D01*
X64473333Y21036667D01*
X64711428Y21036667D01*
X64901904Y20989048D01*
X64997142Y20941429D01*
X65044761Y20893810D01*
X65092380Y20798572D01*
X65092380Y20703334D01*
X65044761Y20608096D01*
X64997142Y20560477D01*
X64901904Y20512858D01*
X64711428Y20465239D01*
X64473333Y20465239D01*
X64282857Y20512858D01*
X64187619Y20560477D01*
X64140000Y20608096D01*
X64092380Y20703334D01*
X65092380Y21989048D02*
X65092380Y21417620D01*
X65092380Y21703334D02*
X64092380Y21703334D01*
X64235238Y21608096D01*
X64330476Y21512858D01*
X64378095Y21417620D01*
%TO.C,K101*%
X53409523Y23847620D02*
X53409523Y24847620D01*
X53980952Y23847620D02*
X53552380Y24419048D01*
X53980952Y24847620D02*
X53409523Y24276191D01*
X54933333Y23847620D02*
X54361904Y23847620D01*
X54647619Y23847620D02*
X54647619Y24847620D01*
X54552380Y24704762D01*
X54457142Y24609524D01*
X54361904Y24561905D01*
X55552380Y24847620D02*
X55647619Y24847620D01*
X55742857Y24800000D01*
X55790476Y24752381D01*
X55838095Y24657143D01*
X55885714Y24466667D01*
X55885714Y24228572D01*
X55838095Y24038096D01*
X55790476Y23942858D01*
X55742857Y23895239D01*
X55647619Y23847620D01*
X55552380Y23847620D01*
X55457142Y23895239D01*
X55409523Y23942858D01*
X55361904Y24038096D01*
X55314285Y24228572D01*
X55314285Y24466667D01*
X55361904Y24657143D01*
X55409523Y24752381D01*
X55457142Y24800000D01*
X55552380Y24847620D01*
X56838095Y23847620D02*
X56266666Y23847620D01*
X56552380Y23847620D02*
X56552380Y24847620D01*
X56457142Y24704762D01*
X56361904Y24609524D01*
X56266666Y24561905D01*
%TO.C,J101*%
X62952380Y10714286D02*
X63666666Y10714286D01*
X63809523Y10666667D01*
X63904761Y10571429D01*
X63952380Y10428572D01*
X63952380Y10333334D01*
X63952380Y11714286D02*
X63952380Y11142858D01*
X63952380Y11428572D02*
X62952380Y11428572D01*
X63095238Y11333334D01*
X63190476Y11238096D01*
X63238095Y11142858D01*
X62952380Y12333334D02*
X62952380Y12428572D01*
X63000000Y12523810D01*
X63047619Y12571429D01*
X63142857Y12619048D01*
X63333333Y12666667D01*
X63571428Y12666667D01*
X63761904Y12619048D01*
X63857142Y12571429D01*
X63904761Y12523810D01*
X63952380Y12428572D01*
X63952380Y12333334D01*
X63904761Y12238096D01*
X63857142Y12190477D01*
X63761904Y12142858D01*
X63571428Y12095239D01*
X63333333Y12095239D01*
X63142857Y12142858D01*
X63047619Y12190477D01*
X63000000Y12238096D01*
X62952380Y12333334D01*
X63952380Y13619048D02*
X63952380Y13047620D01*
X63952380Y13333334D02*
X62952380Y13333334D01*
X63095238Y13238096D01*
X63190476Y13142858D01*
X63238095Y13047620D01*
%TO.C,D101*%
X40112380Y26180953D02*
X39112380Y26180953D01*
X39112380Y26419048D01*
X39160000Y26561905D01*
X39255238Y26657143D01*
X39350476Y26704762D01*
X39540952Y26752381D01*
X39683809Y26752381D01*
X39874285Y26704762D01*
X39969523Y26657143D01*
X40064761Y26561905D01*
X40112380Y26419048D01*
X40112380Y26180953D01*
X40112380Y27180953D02*
X39445714Y27180953D01*
X39112380Y27180953D02*
X39160000Y27133334D01*
X39207619Y27180953D01*
X39160000Y27228572D01*
X39112380Y27180953D01*
X39207619Y27180953D01*
X40112380Y27800000D02*
X40064761Y27704762D01*
X40017142Y27657143D01*
X39921904Y27609524D01*
X39636190Y27609524D01*
X39540952Y27657143D01*
X39493333Y27704762D01*
X39445714Y27800000D01*
X39445714Y27942858D01*
X39493333Y28038096D01*
X39540952Y28085715D01*
X39636190Y28133334D01*
X39921904Y28133334D01*
X40017142Y28085715D01*
X40064761Y28038096D01*
X40112380Y27942858D01*
X40112380Y27800000D01*
X40112380Y28990477D02*
X39112380Y28990477D01*
X40064761Y28990477D02*
X40112380Y28895239D01*
X40112380Y28704762D01*
X40064761Y28609524D01*
X40017142Y28561905D01*
X39921904Y28514286D01*
X39636190Y28514286D01*
X39540952Y28561905D01*
X39493333Y28609524D01*
X39445714Y28704762D01*
X39445714Y28895239D01*
X39493333Y28990477D01*
X40064761Y29847620D02*
X40112380Y29752381D01*
X40112380Y29561905D01*
X40064761Y29466667D01*
X39969523Y29419048D01*
X39588571Y29419048D01*
X39493333Y29466667D01*
X39445714Y29561905D01*
X39445714Y29752381D01*
X39493333Y29847620D01*
X39588571Y29895239D01*
X39683809Y29895239D01*
X39779047Y29419048D01*
X40207619Y30085715D02*
X40207619Y30847620D01*
X40112380Y31609524D02*
X40112380Y31038096D01*
X40112380Y31323810D02*
X39112380Y31323810D01*
X39255238Y31228572D01*
X39350476Y31133334D01*
X39398095Y31038096D01*
X40112380Y32038096D02*
X39112380Y32038096D01*
X40112380Y32609524D01*
X39112380Y32609524D01*
X39445714Y33514286D02*
X40112380Y33514286D01*
X39064761Y33276191D02*
X39779047Y33038096D01*
X39779047Y33657143D01*
X40112380Y34561905D02*
X40112380Y33990477D01*
X40112380Y34276191D02*
X39112380Y34276191D01*
X39255238Y34180953D01*
X39350476Y34085715D01*
X39398095Y33990477D01*
X39445714Y35419048D02*
X40112380Y35419048D01*
X39064761Y35180953D02*
X39779047Y34942858D01*
X39779047Y35561905D01*
X39540952Y36085715D02*
X39493333Y35990477D01*
X39445714Y35942858D01*
X39350476Y35895239D01*
X39302857Y35895239D01*
X39207619Y35942858D01*
X39160000Y35990477D01*
X39112380Y36085715D01*
X39112380Y36276191D01*
X39160000Y36371429D01*
X39207619Y36419048D01*
X39302857Y36466667D01*
X39350476Y36466667D01*
X39445714Y36419048D01*
X39493333Y36371429D01*
X39540952Y36276191D01*
X39540952Y36085715D01*
X39588571Y35990477D01*
X39636190Y35942858D01*
X39731428Y35895239D01*
X39921904Y35895239D01*
X40017142Y35942858D01*
X40064761Y35990477D01*
X40112380Y36085715D01*
X40112380Y36276191D01*
X40064761Y36371429D01*
X40017142Y36419048D01*
X39921904Y36466667D01*
X39731428Y36466667D01*
X39636190Y36419048D01*
X39588571Y36371429D01*
X39540952Y36276191D01*
%TO.C,J2*%
X70552380Y30956667D02*
X71266666Y30956667D01*
X71409523Y30909048D01*
X71504761Y30813810D01*
X71552380Y30670953D01*
X71552380Y30575715D01*
X70647619Y31385239D02*
X70600000Y31432858D01*
X70552380Y31528096D01*
X70552380Y31766191D01*
X70600000Y31861429D01*
X70647619Y31909048D01*
X70742857Y31956667D01*
X70838095Y31956667D01*
X70980952Y31909048D01*
X71552380Y31337620D01*
X71552380Y31956667D01*
%TO.C,R102*%
X20914285Y17247620D02*
X20580952Y17723810D01*
X20342857Y17247620D02*
X20342857Y18247620D01*
X20723809Y18247620D01*
X20819047Y18200000D01*
X20866666Y18152381D01*
X20914285Y18057143D01*
X20914285Y17914286D01*
X20866666Y17819048D01*
X20819047Y17771429D01*
X20723809Y17723810D01*
X20342857Y17723810D01*
X21295238Y18152381D02*
X21342857Y18200000D01*
X21438095Y18247620D01*
X21676190Y18247620D01*
X21771428Y18200000D01*
X21819047Y18152381D01*
X21866666Y18057143D01*
X21866666Y17961905D01*
X21819047Y17819048D01*
X21247619Y17247620D01*
X21866666Y17247620D01*
X22295238Y17342858D02*
X22342857Y17295239D01*
X22295238Y17247620D01*
X22247619Y17295239D01*
X22295238Y17342858D01*
X22295238Y17247620D01*
X22723809Y18152381D02*
X22771428Y18200000D01*
X22866666Y18247620D01*
X23104761Y18247620D01*
X23200000Y18200000D01*
X23247619Y18152381D01*
X23295238Y18057143D01*
X23295238Y17961905D01*
X23247619Y17819048D01*
X22676190Y17247620D01*
X23295238Y17247620D01*
X23723809Y17247620D02*
X23723809Y18247620D01*
X23819047Y17628572D02*
X24104761Y17247620D01*
X24104761Y17914286D02*
X23723809Y17533334D01*
%TO.C,R101*%
X20714285Y12747620D02*
X20380952Y13223810D01*
X20142857Y12747620D02*
X20142857Y13747620D01*
X20523809Y13747620D01*
X20619047Y13700000D01*
X20666666Y13652381D01*
X20714285Y13557143D01*
X20714285Y13414286D01*
X20666666Y13319048D01*
X20619047Y13271429D01*
X20523809Y13223810D01*
X20142857Y13223810D01*
X21285714Y13319048D02*
X21190476Y13366667D01*
X21142857Y13414286D01*
X21095238Y13509524D01*
X21095238Y13557143D01*
X21142857Y13652381D01*
X21190476Y13700000D01*
X21285714Y13747620D01*
X21476190Y13747620D01*
X21571428Y13700000D01*
X21619047Y13652381D01*
X21666666Y13557143D01*
X21666666Y13509524D01*
X21619047Y13414286D01*
X21571428Y13366667D01*
X21476190Y13319048D01*
X21285714Y13319048D01*
X21190476Y13271429D01*
X21142857Y13223810D01*
X21095238Y13128572D01*
X21095238Y12938096D01*
X21142857Y12842858D01*
X21190476Y12795239D01*
X21285714Y12747620D01*
X21476190Y12747620D01*
X21571428Y12795239D01*
X21619047Y12842858D01*
X21666666Y12938096D01*
X21666666Y13128572D01*
X21619047Y13223810D01*
X21571428Y13271429D01*
X21476190Y13319048D01*
X22095238Y12842858D02*
X22142857Y12795239D01*
X22095238Y12747620D01*
X22047619Y12795239D01*
X22095238Y12842858D01*
X22095238Y12747620D01*
X22523809Y13652381D02*
X22571428Y13700000D01*
X22666666Y13747620D01*
X22904761Y13747620D01*
X23000000Y13700000D01*
X23047619Y13652381D01*
X23095238Y13557143D01*
X23095238Y13461905D01*
X23047619Y13319048D01*
X22476190Y12747620D01*
X23095238Y12747620D01*
X23523809Y12747620D02*
X23523809Y13747620D01*
X23619047Y13128572D02*
X23904761Y12747620D01*
X23904761Y13414286D02*
X23523809Y13033334D01*
%TO.C,U2*%
X34035714Y12250000D02*
X34607142Y12250000D01*
X33921428Y11821429D02*
X34321428Y13321429D01*
X34721428Y11821429D01*
X34950000Y13321429D02*
X35635714Y13321429D01*
X35292857Y11821429D02*
X35292857Y13321429D01*
X35864285Y12821429D02*
X36321428Y12821429D01*
X36035714Y13321429D02*
X36035714Y12035715D01*
X36092857Y11892858D01*
X36207142Y11821429D01*
X36321428Y11821429D01*
X36721428Y11821429D02*
X36721428Y12821429D01*
X36721428Y13321429D02*
X36664285Y13250000D01*
X36721428Y13178572D01*
X36778571Y13250000D01*
X36721428Y13321429D01*
X36721428Y13178572D01*
X37292857Y12821429D02*
X37292857Y11821429D01*
X37292857Y12678572D02*
X37350000Y12750000D01*
X37464285Y12821429D01*
X37635714Y12821429D01*
X37750000Y12750000D01*
X37807142Y12607143D01*
X37807142Y11821429D01*
X38264285Y12821429D02*
X38550000Y11821429D01*
X38835714Y12821429D02*
X38550000Y11821429D01*
X38435714Y11464286D01*
X38378571Y11392858D01*
X38264285Y11321429D01*
X39464285Y12678572D02*
X39350000Y12750000D01*
X39292857Y12821429D01*
X39235714Y12964286D01*
X39235714Y13035715D01*
X39292857Y13178572D01*
X39350000Y13250000D01*
X39464285Y13321429D01*
X39692857Y13321429D01*
X39807142Y13250000D01*
X39864285Y13178572D01*
X39921428Y13035715D01*
X39921428Y12964286D01*
X39864285Y12821429D01*
X39807142Y12750000D01*
X39692857Y12678572D01*
X39464285Y12678572D01*
X39350000Y12607143D01*
X39292857Y12535715D01*
X39235714Y12392858D01*
X39235714Y12107143D01*
X39292857Y11964286D01*
X39350000Y11892858D01*
X39464285Y11821429D01*
X39692857Y11821429D01*
X39807142Y11892858D01*
X39864285Y11964286D01*
X39921428Y12107143D01*
X39921428Y12392858D01*
X39864285Y12535715D01*
X39807142Y12607143D01*
X39692857Y12678572D01*
X41007142Y13321429D02*
X40435714Y13321429D01*
X40378571Y12607143D01*
X40435714Y12678572D01*
X40550000Y12750000D01*
X40835714Y12750000D01*
X40950000Y12678572D01*
X41007142Y12607143D01*
X41064285Y12464286D01*
X41064285Y12107143D01*
X41007142Y11964286D01*
X40950000Y11892858D01*
X40835714Y11821429D01*
X40550000Y11821429D01*
X40435714Y11892858D01*
X40378571Y11964286D01*
%TO.C,U1*%
X23738095Y31947620D02*
X23738095Y31138096D01*
X23785714Y31042858D01*
X23833333Y30995239D01*
X23928571Y30947620D01*
X24119047Y30947620D01*
X24214285Y30995239D01*
X24261904Y31042858D01*
X24309523Y31138096D01*
X24309523Y31947620D01*
X25309523Y30947620D02*
X24738095Y30947620D01*
X25023809Y30947620D02*
X25023809Y31947620D01*
X24928571Y31804762D01*
X24833333Y31709524D01*
X24738095Y31661905D01*
X17290476Y39328572D02*
X18052380Y39328572D01*
X17671428Y38947620D02*
X17671428Y39709524D01*
X18719047Y39947620D02*
X18909523Y39947620D01*
X19004761Y39900000D01*
X19100000Y39804762D01*
X19147619Y39614286D01*
X19147619Y39280953D01*
X19100000Y39090477D01*
X19004761Y38995239D01*
X18909523Y38947620D01*
X18719047Y38947620D01*
X18623809Y38995239D01*
X18528571Y39090477D01*
X18480952Y39280953D01*
X18480952Y39614286D01*
X18528571Y39804762D01*
X18623809Y39900000D01*
X18719047Y39947620D01*
X19576190Y39947620D02*
X19576190Y39138096D01*
X19623809Y39042858D01*
X19671428Y38995239D01*
X19766666Y38947620D01*
X19957142Y38947620D01*
X20052380Y38995239D01*
X20100000Y39042858D01*
X20147619Y39138096D01*
X20147619Y39947620D01*
X20480952Y39947620D02*
X21052380Y39947620D01*
X20766666Y38947620D02*
X20766666Y39947620D01*
X17290476Y26328572D02*
X18052380Y26328572D01*
X18719047Y26947620D02*
X18909523Y26947620D01*
X19004761Y26900000D01*
X19100000Y26804762D01*
X19147619Y26614286D01*
X19147619Y26280953D01*
X19100000Y26090477D01*
X19004761Y25995239D01*
X18909523Y25947620D01*
X18719047Y25947620D01*
X18623809Y25995239D01*
X18528571Y26090477D01*
X18480952Y26280953D01*
X18480952Y26614286D01*
X18528571Y26804762D01*
X18623809Y26900000D01*
X18719047Y26947620D01*
X19576190Y26947620D02*
X19576190Y26138096D01*
X19623809Y26042858D01*
X19671428Y25995239D01*
X19766666Y25947620D01*
X19957142Y25947620D01*
X20052380Y25995239D01*
X20100000Y26042858D01*
X20147619Y26138096D01*
X20147619Y26947620D01*
X20480952Y26947620D02*
X21052380Y26947620D01*
X20766666Y25947620D02*
X20766666Y26947620D01*
X30457142Y39328572D02*
X31219047Y39328572D01*
X30838095Y38947620D02*
X30838095Y39709524D01*
X31695238Y38947620D02*
X31695238Y39947620D01*
X32171428Y38947620D02*
X32171428Y39947620D01*
X32742857Y38947620D01*
X32742857Y39947620D01*
X30957142Y26328572D02*
X31719047Y26328572D01*
X32195238Y25947620D02*
X32195238Y26947620D01*
X32671428Y25947620D02*
X32671428Y26947620D01*
X33242857Y25947620D01*
X33242857Y26947620D01*
%TD*%
M02*
