M48
; DRILL file {KiCad (5.1.9)-1} date 05/17/23 11:54:52
; FORMAT={-:-/ absolute / metric / decimal}
; #@! TF.CreationDate,2023-05-17T11:54:52+02:00
; #@! TF.GenerationSoftware,Kicad,Pcbnew,(5.1.9)-1
FMAT,2
METRIC
T1C0.700
T2C0.900
T3C1.000
T4C1.100
T5C1.200
T6C3.000
%
G90
G05
T1
X17.3Y17.7
X17.3Y13.3
X27.3Y17.7
X27.3Y13.3
X33.49Y16.31
X33.49Y8.69
X36.03Y16.31
X36.03Y8.69
X38.57Y16.31
X38.57Y8.69
X41.11Y16.31
X41.11Y8.69
X42.2Y35.11
X42.2Y27.49
X42.2Y19.8
X52.2Y19.8
X66.2Y19.87
X68.2Y22.1
X68.2Y17.6
T2
X68.8Y35.11
X68.8Y32.57
X68.8Y30.03
X68.8Y27.49
T3
X15.85Y39.5
X15.85Y26.3
X34.35Y39.5
X34.35Y26.3
X58.5Y15.8
X58.5Y13.3
X58.5Y10.8
X58.5Y8.3
T4
X47.0Y33.5
X49.0Y39.5
X49.0Y27.5
X61.2Y39.5
X61.2Y27.5
T5
X7.3Y31.4
X7.3Y26.32
X7.3Y21.24
X7.3Y16.16
X7.3Y11.08
T6
X3.4Y40.8
X3.4Y4.3
X71.7Y40.8
X71.7Y4.3
T0
M30
